# xmcd
#
# Track frame offsets:
#	150
#	20362
#	40302
#	61717
#	79311
#	99609
#	119956
#	140242
#	162458
#	184948
#	206941
#	225754
#	247196
#	266330
#	290825
#
# Disc length: 4100 seconds
#
# Revision: 1
# Processed by: cddbd v1.5.1PL0 Copyright (c) Steve Scherf et al.
# Submitted via: CDex 1.50Beta5
#
DISCID=e710020f
DTITLE=さまざまなアーティスト - 大阪ソウルバラード
DYEAR=1900
DGENRE=Soul
TTITLE0=やしきたかじん/やっぱ好きやねん
TTITLE1=上田正樹/悲しい色やね
TTITLE2=BORO/大阪で生まれた女
TTITLE3=河島英五/酒と泪と男と女
TTITLE4=やしきたかじん/生まれる前から好きやった
TTITLE5=憂歌団/大阪ビッグ・リバー・ブルース
TTITLE6=シャ乱Q/大阪エレジー
TTITLE7=やしきたかじん/なめとんか
TTITLE8=トミーズ雅/いじめやんといて
TTITLE9=上田正樹/OSAKA ON MY MIND
TTITLE10=やしきたかじん/あんた
TTITLE11=門田頼命/お前が好きやねん
TTITLE12=間寛平/大阪で生まれた男
TTITLE13=やしきたかじん/大阪恋物語
TTITLE14=ファンキー・プリンス/おやすみ大阪
EXTD=
EXTT0=
EXTT1=
EXTT2=
EXTT3=
EXTT4=
EXTT5=
EXTT6=
EXTT7=
EXTT8=
EXTT9=
EXTT10=
EXTT11=
EXTT12=
EXTT13=
EXTT14=
PLAYORDER=
